{
    "asset" : {
        "generator" : "Khronos glTF Blender I/O v1.4.40",
        "version" : "2.0"
    },
    "scene" : 0,
    "scenes" : [
        {
            "name" : "Scene",
            "nodes" : [
                0,
                1
            ]
        }
    ],
    "nodes" : [
        {
            "mesh" : 0,
            "name" : "WrapLeft",
            "scale" : [
                1.172072410583496,
                1.172072410583496,
                1.172072410583496
            ],
            "translation" : [
                0,
                1,
                0
            ]
        },
        {
            "mesh" : 1,
            "name" : "WrapRight",
            "scale" : [
                1.172072410583496,
                1.172072410583496,
                1.172072410583496
            ],
            "translation" : [
                0,
                1,
                0
            ]
        }
    ],
    "animations" : [
        {
            "channels" : [
                {
                    "sampler" : 0,
                    "target" : {
                        "node" : 0,
                        "path" : "weights"
                    }
                },
                {
                    "sampler" : 1,
                    "target" : {
                        "node" : 0,
                        "path" : "translation"
                    }
                },
                {
                    "sampler" : 2,
                    "target" : {
                        "node" : 0,
                        "path" : "scale"
                    }
                },
                {
                    "sampler" : 3,
                    "target" : {
                        "node" : 1,
                        "path" : "weights"
                    }
                },
                {
                    "sampler" : 4,
                    "target" : {
                        "node" : 1,
                        "path" : "translation"
                    }
                },
                {
                    "sampler" : 5,
                    "target" : {
                        "node" : 1,
                        "path" : "scale"
                    }
                }
            ],
            "name" : "Animation",
            "samplers" : [
                {
                    "input" : 40,
                    "interpolation" : "LINEAR",
                    "output" : 41
                },
                {
                    "input" : 40,
                    "interpolation" : "LINEAR",
                    "output" : 42
                },
                {
                    "input" : 40,
                    "interpolation" : "LINEAR",
                    "output" : 43
                },
                {
                    "input" : 40,
                    "interpolation" : "LINEAR",
                    "output" : 44
                },
                {
                    "input" : 40,
                    "interpolation" : "LINEAR",
                    "output" : 45
                },
                {
                    "input" : 40,
                    "interpolation" : "LINEAR",
                    "output" : 46
                }
            ]
        }
    ],
    "materials" : [
        {
            "doubleSided" : true,
            "name" : "Wrapping",
            "pbrMetallicRoughness" : {
                "baseColorFactor" : [
                    0.8000000715255737,
                    0.0009108243393711746,
                    0.007556581404060125,
                    1
                ],
                "metallicFactor" : 0,
                "roughnessFactor" : 0.5
            }
        },
        {
            "doubleSided" : true,
            "name" : "Wrapping2",
            "pbrMetallicRoughness" : {
                "baseColorFactor" : [
                    0.016790006309747696,
                    0.20318087935447693,
                    0.01023531798273325,
                    1
                ],
                "metallicFactor" : 0,
                "roughnessFactor" : 0.5
            }
        }
    ],
    "meshes" : [
        {
            "extras" : {
                "targetNames" : [
                    "Key 1",
                    "Key 2",
                    "Key 3"
                ]
            },
            "name" : "Cube.007",
            "primitives" : [
                {
                    "attributes" : {
                        "POSITION" : 0,
                        "NORMAL" : 1,
                        "TEXCOORD_0" : 2
                    },
                    "indices" : 3,
                    "material" : 0,
                    "targets" : [
                        {
                            "POSITION" : 4,
                            "NORMAL" : 5
                        },
                        {
                            "POSITION" : 6,
                            "NORMAL" : 7
                        },
                        {
                            "POSITION" : 8,
                            "NORMAL" : 9
                        }
                    ]
                },
                {
                    "attributes" : {
                        "POSITION" : 10,
                        "NORMAL" : 11,
                        "TEXCOORD_0" : 12
                    },
                    "indices" : 13,
                    "material" : 1,
                    "targets" : [
                        {
                            "POSITION" : 14,
                            "NORMAL" : 15
                        },
                        {
                            "POSITION" : 16,
                            "NORMAL" : 17
                        },
                        {
                            "POSITION" : 18,
                            "NORMAL" : 19
                        }
                    ]
                }
            ],
            "weights" : [
                0,
                0,
                0
            ]
        },
        {
            "extras" : {
                "targetNames" : [
                    "Key 1",
                    "Key 2",
                    "Key 3"
                ]
            },
            "name" : "Cube.008",
            "primitives" : [
                {
                    "attributes" : {
                        "POSITION" : 20,
                        "NORMAL" : 21,
                        "TEXCOORD_0" : 22
                    },
                    "indices" : 23,
                    "material" : 0,
                    "targets" : [
                        {
                            "POSITION" : 24,
                            "NORMAL" : 25
                        },
                        {
                            "POSITION" : 26,
                            "NORMAL" : 27
                        },
                        {
                            "POSITION" : 28,
                            "NORMAL" : 29
                        }
                    ]
                },
                {
                    "attributes" : {
                        "POSITION" : 30,
                        "NORMAL" : 31,
                        "TEXCOORD_0" : 32
                    },
                    "indices" : 33,
                    "material" : 1,
                    "targets" : [
                        {
                            "POSITION" : 34,
                            "NORMAL" : 35
                        },
                        {
                            "POSITION" : 36,
                            "NORMAL" : 37
                        },
                        {
                            "POSITION" : 38,
                            "NORMAL" : 39
                        }
                    ]
                }
            ],
            "weights" : [
                0,
                0,
                0
            ]
        }
    ],
    "accessors" : [
        {
            "bufferView" : 0,
            "componentType" : 5126,
            "count" : 56,
            "max" : [
                -0.23936724662780762,
                1,
                1
            ],
            "min" : [
                -1,
                -1,
                -1
            ],
            "type" : "VEC3"
        },
        {
            "bufferView" : 1,
            "componentType" : 5126,
            "count" : 56,
            "type" : "VEC3"
        },
        {
            "bufferView" : 2,
            "componentType" : 5126,
            "count" : 56,
            "type" : "VEC2"
        },
        {
            "bufferView" : 3,
            "componentType" : 5123,
            "count" : 120,
            "type" : "SCALAR"
        },
        {
            "bufferView" : 4,
            "componentType" : 5126,
            "count" : 56,
            "max" : [
                -0.10927420854568481,
                0,
                0
            ],
            "min" : [
                -1.0451245307922363,
                0,
                0
            ],
            "type" : "VEC3"
        },
        {
            "bufferView" : 5,
            "componentType" : 5126,
            "count" : 56,
            "type" : "VEC3"
        },
        {
            "bufferView" : 6,
            "componentType" : 5126,
            "count" : 56,
            "max" : [
                0,
                0,
                0
            ],
            "min" : [
                -1.0451245307922363,
                0,
                0
            ],
            "type" : "VEC3"
        },
        {
            "bufferView" : 7,
            "componentType" : 5126,
            "count" : 56,
            "type" : "VEC3"
        },
        {
            "bufferView" : 8,
            "componentType" : 5126,
            "count" : 56,
            "max" : [
                -0.019935131072998047,
                0.30730772018432617,
                0.30730772018432617
            ],
            "min" : [
                -0.8052697777748108,
                -0.30730772018432617,
                -0.30730772018432617
            ],
            "type" : "VEC3"
        },
        {
            "bufferView" : 9,
            "componentType" : 5126,
            "count" : 56,
            "type" : "VEC3"
        },
        {
            "bufferView" : 10,
            "componentType" : 5126,
            "count" : 78,
            "max" : [
                0.17998969554901123,
                1,
                1
            ],
            "min" : [
                -1,
                -1,
                -1
            ],
            "type" : "VEC3"
        },
        {
            "bufferView" : 11,
            "componentType" : 5126,
            "count" : 78,
            "type" : "VEC3"
        },
        {
            "bufferView" : 12,
            "componentType" : 5126,
            "count" : 78,
            "type" : "VEC2"
        },
        {
            "bufferView" : 13,
            "componentType" : 5123,
            "count" : 168,
            "type" : "SCALAR"
        },
        {
            "bufferView" : 14,
            "componentType" : 5126,
            "count" : 78,
            "max" : [
                -0.010383771732449532,
                0,
                0
            ],
            "min" : [
                -1.2797844409942627,
                0,
                0
            ],
            "type" : "VEC3"
        },
        {
            "bufferView" : 15,
            "componentType" : 5126,
            "count" : 78,
            "type" : "VEC3"
        },
        {
            "bufferView" : 16,
            "componentType" : 5126,
            "count" : 78,
            "max" : [
                0,
                0,
                0
            ],
            "min" : [
                -1.2797844409942627,
                0,
                0
            ],
            "type" : "VEC3"
        },
        {
            "bufferView" : 17,
            "componentType" : 5126,
            "count" : 78,
            "type" : "VEC3"
        },
        {
            "bufferView" : 18,
            "componentType" : 5126,
            "count" : 78,
            "max" : [
                0,
                0.41110098361968994,
                0.41110098361968994
            ],
            "min" : [
                -1.0927140712738037,
                -0.41110098361968994,
                -0.41110098361968994
            ],
            "type" : "VEC3"
        },
        {
            "bufferView" : 19,
            "componentType" : 5126,
            "count" : 78,
            "type" : "VEC3"
        },
        {
            "bufferView" : 20,
            "componentType" : 5126,
            "count" : 60,
            "max" : [
                1,
                1,
                1
            ],
            "min" : [
                0.23936724662780762,
                -1,
                -1
            ],
            "type" : "VEC3"
        },
        {
            "bufferView" : 21,
            "componentType" : 5126,
            "count" : 60,
            "type" : "VEC3"
        },
        {
            "bufferView" : 22,
            "componentType" : 5126,
            "count" : 60,
            "type" : "VEC2"
        },
        {
            "bufferView" : 23,
            "componentType" : 5123,
            "count" : 120,
            "type" : "SCALAR"
        },
        {
            "bufferView" : 24,
            "componentType" : 5126,
            "count" : 60,
            "max" : [
                1.0451245307922363,
                0,
                0
            ],
            "min" : [
                0.10927420854568481,
                0,
                0
            ],
            "type" : "VEC3"
        },
        {
            "bufferView" : 25,
            "componentType" : 5126,
            "count" : 60,
            "type" : "VEC3"
        },
        {
            "bufferView" : 26,
            "componentType" : 5126,
            "count" : 60,
            "max" : [
                1.0451245307922363,
                0,
                0
            ],
            "min" : [
                0,
                0,
                0
            ],
            "type" : "VEC3"
        },
        {
            "bufferView" : 27,
            "componentType" : 5126,
            "count" : 60,
            "type" : "VEC3"
        },
        {
            "bufferView" : 28,
            "componentType" : 5126,
            "count" : 60,
            "max" : [
                0.8160207867622375,
                0.3737618923187256,
                0.3737618923187256
            ],
            "min" : [
                0.0242459774017334,
                -0.3737618923187256,
                -0.3737618923187256
            ],
            "type" : "VEC3"
        },
        {
            "bufferView" : 29,
            "componentType" : 5126,
            "count" : 60,
            "type" : "VEC3"
        },
        {
            "bufferView" : 30,
            "componentType" : 5126,
            "count" : 80,
            "max" : [
                1,
                1,
                1
            ],
            "min" : [
                -0.17998969554901123,
                -1,
                -1
            ],
            "type" : "VEC3"
        },
        {
            "bufferView" : 31,
            "componentType" : 5126,
            "count" : 80,
            "type" : "VEC3"
        },
        {
            "bufferView" : 32,
            "componentType" : 5126,
            "count" : 80,
            "type" : "VEC2"
        },
        {
            "bufferView" : 33,
            "componentType" : 5123,
            "count" : 168,
            "type" : "SCALAR"
        },
        {
            "bufferView" : 34,
            "componentType" : 5126,
            "count" : 80,
            "max" : [
                1.2797844409942627,
                0,
                0
            ],
            "min" : [
                0.010383771732449532,
                0,
                0
            ],
            "type" : "VEC3"
        },
        {
            "bufferView" : 35,
            "componentType" : 5126,
            "count" : 80,
            "type" : "VEC3"
        },
        {
            "bufferView" : 36,
            "componentType" : 5126,
            "count" : 80,
            "max" : [
                1.2797844409942627,
                0,
                0
            ],
            "min" : [
                0,
                0,
                0
            ],
            "type" : "VEC3"
        },
        {
            "bufferView" : 37,
            "componentType" : 5126,
            "count" : 80,
            "type" : "VEC3"
        },
        {
            "bufferView" : 38,
            "componentType" : 5126,
            "count" : 80,
            "max" : [
                1.1187260150909424,
                0.5,
                0.5
            ],
            "min" : [
                0,
                -0.5,
                -0.5
            ],
            "type" : "VEC3"
        },
        {
            "bufferView" : 39,
            "componentType" : 5126,
            "count" : 80,
            "type" : "VEC3"
        },
        {
            "bufferView" : 40,
            "componentType" : 5126,
            "count" : 150,
            "max" : [
                6.25
            ],
            "min" : [
                0.041666666666666664
            ],
            "type" : "SCALAR"
        },
        {
            "bufferView" : 41,
            "componentType" : 5126,
            "count" : 450,
            "type" : "SCALAR"
        },
        {
            "bufferView" : 42,
            "componentType" : 5126,
            "count" : 150,
            "type" : "VEC3"
        },
        {
            "bufferView" : 43,
            "componentType" : 5126,
            "count" : 150,
            "type" : "VEC3"
        },
        {
            "bufferView" : 44,
            "componentType" : 5126,
            "count" : 450,
            "type" : "SCALAR"
        },
        {
            "bufferView" : 45,
            "componentType" : 5126,
            "count" : 150,
            "type" : "VEC3"
        },
        {
            "bufferView" : 46,
            "componentType" : 5126,
            "count" : 150,
            "type" : "VEC3"
        }
    ],
    "bufferViews" : [
        {
            "buffer" : 0,
            "byteLength" : 672,
            "byteOffset" : 0
        },
        {
            "buffer" : 0,
            "byteLength" : 672,
            "byteOffset" : 672
        },
        {
            "buffer" : 0,
            "byteLength" : 448,
            "byteOffset" : 1344
        },
        {
            "buffer" : 0,
            "byteLength" : 240,
            "byteOffset" : 1792
        },
        {
            "buffer" : 0,
            "byteLength" : 672,
            "byteOffset" : 2032
        },
        {
            "buffer" : 0,
            "byteLength" : 672,
            "byteOffset" : 2704
        },
        {
            "buffer" : 0,
            "byteLength" : 672,
            "byteOffset" : 3376
        },
        {
            "buffer" : 0,
            "byteLength" : 672,
            "byteOffset" : 4048
        },
        {
            "buffer" : 0,
            "byteLength" : 672,
            "byteOffset" : 4720
        },
        {
            "buffer" : 0,
            "byteLength" : 672,
            "byteOffset" : 5392
        },
        {
            "buffer" : 0,
            "byteLength" : 936,
            "byteOffset" : 6064
        },
        {
            "buffer" : 0,
            "byteLength" : 936,
            "byteOffset" : 7000
        },
        {
            "buffer" : 0,
            "byteLength" : 624,
            "byteOffset" : 7936
        },
        {
            "buffer" : 0,
            "byteLength" : 336,
            "byteOffset" : 8560
        },
        {
            "buffer" : 0,
            "byteLength" : 936,
            "byteOffset" : 8896
        },
        {
            "buffer" : 0,
            "byteLength" : 936,
            "byteOffset" : 9832
        },
        {
            "buffer" : 0,
            "byteLength" : 936,
            "byteOffset" : 10768
        },
        {
            "buffer" : 0,
            "byteLength" : 936,
            "byteOffset" : 11704
        },
        {
            "buffer" : 0,
            "byteLength" : 936,
            "byteOffset" : 12640
        },
        {
            "buffer" : 0,
            "byteLength" : 936,
            "byteOffset" : 13576
        },
        {
            "buffer" : 0,
            "byteLength" : 720,
            "byteOffset" : 14512
        },
        {
            "buffer" : 0,
            "byteLength" : 720,
            "byteOffset" : 15232
        },
        {
            "buffer" : 0,
            "byteLength" : 480,
            "byteOffset" : 15952
        },
        {
            "buffer" : 0,
            "byteLength" : 240,
            "byteOffset" : 16432
        },
        {
            "buffer" : 0,
            "byteLength" : 720,
            "byteOffset" : 16672
        },
        {
            "buffer" : 0,
            "byteLength" : 720,
            "byteOffset" : 17392
        },
        {
            "buffer" : 0,
            "byteLength" : 720,
            "byteOffset" : 18112
        },
        {
            "buffer" : 0,
            "byteLength" : 720,
            "byteOffset" : 18832
        },
        {
            "buffer" : 0,
            "byteLength" : 720,
            "byteOffset" : 19552
        },
        {
            "buffer" : 0,
            "byteLength" : 720,
            "byteOffset" : 20272
        },
        {
            "buffer" : 0,
            "byteLength" : 960,
            "byteOffset" : 20992
        },
        {
            "buffer" : 0,
            "byteLength" : 960,
            "byteOffset" : 21952
        },
        {
            "buffer" : 0,
            "byteLength" : 640,
            "byteOffset" : 22912
        },
        {
            "buffer" : 0,
            "byteLength" : 336,
            "byteOffset" : 23552
        },
        {
            "buffer" : 0,
            "byteLength" : 960,
            "byteOffset" : 23888
        },
        {
            "buffer" : 0,
            "byteLength" : 960,
            "byteOffset" : 24848
        },
        {
            "buffer" : 0,
            "byteLength" : 960,
            "byteOffset" : 25808
        },
        {
            "buffer" : 0,
            "byteLength" : 960,
            "byteOffset" : 26768
        },
        {
            "buffer" : 0,
            "byteLength" : 960,
            "byteOffset" : 27728
        },
        {
            "buffer" : 0,
            "byteLength" : 960,
            "byteOffset" : 28688
        },
        {
            "buffer" : 0,
            "byteLength" : 600,
            "byteOffset" : 29648
        },
        {
            "buffer" : 0,
            "byteLength" : 1800,
            "byteOffset" : 30248
        },
        {
            "buffer" : 0,
            "byteLength" : 1800,
            "byteOffset" : 32048
        },
        {
            "buffer" : 0,
            "byteLength" : 1800,
            "byteOffset" : 33848
        },
        {
            "buffer" : 0,
            "byteLength" : 1800,
            "byteOffset" : 35648
        },
        {
            "buffer" : 0,
            "byteLength" : 1800,
            "byteOffset" : 37448
        },
        {
            "buffer" : 0,
            "byteLength" : 1800,
            "byteOffset" : 39248
        }
    ],
    "buffers" : [
        {
            "byteLength" : 41048,
            "uri" : "data:application/octet-stream;base64,"
        }
    ]
}
